<?xml version="1.0" standalone="no"?>
<!DOCTYPE svg PUBLIC "-//W3C//DTD SVG 20010904//EN"
 "http://www.w3.org/TR/2001/REC-SVG-20010904/DTD/svg10.dtd">
<svg version="1.0" xmlns="http://www.w3.org/2000/svg"
 width="512.000000pt" height="512.000000pt" viewBox="0 0 512.000000 512.000000"
 preserveAspectRatio="xMidYMid meet">
<metadata>
Created by potrace 1.14, written by Peter Selinger 2001-2017
</metadata>
<g transform="translate(0.000000,512.000000) scale(0.100000,-0.100000)"
fill="#000000" stroke="none">
<path d="M1918 4475 c-2 -1 -39 -5 -83 -9 -240 -20 -489 -73 -717 -152 -110
-38 -115 -40 -251 -103 -81 -37 -261 -139 -297 -168 -8 -6 -42 -32 -76 -57
-60 -45 -195 -172 -247 -234 -113 -133 -212 -342 -235 -492 -15 -97 -7 -518
13 -680 9 -74 17 -136 21 -155 2 -11 6 -33 9 -50 25 -146 88 -385 124 -470 5
-11 15 -36 22 -55 17 -47 112 -244 145 -299 263 -447 682 -743 1209 -852 206
-43 330 -54 590 -54 259 1 348 10 600 60 192 38 449 146 630 264 145 95 321
261 424 401 35 46 71 90 80 96 20 15 182 72 222 79 206 36 456 107 579 163
160 72 301 198 363 322 65 132 70 161 74 492 5 326 1 369 -48 467 -68 136
-191 225 -369 267 -58 14 -276 13 -354 -2 -43 -8 -80 -13 -82 -11 -2 2 -13 38
-23 80 -60 234 -218 464 -442 643 -251 200 -611 363 -974 440 -86 18 -241 45
-290 50 -33 3 -73 8 -90 11 -32 5 -521 13 -527 8z m517 -179 c17 -3 50 -7 75
-10 185 -20 455 -81 595 -133 371 -139 643 -319 805 -534 236 -314 246 -648
29 -971 -81 -120 -263 -284 -424 -380 -251 -151 -628 -279 -925 -314 -24 -3
-47 -7 -50 -9 -29 -17 -553 -27 -695 -12 -410 42 -754 143 -1037 303 -421 238
-644 555 -634 902 4 120 24 201 81 317 151 309 499 567 970 718 103 33 291 78
379 92 21 3 48 7 60 10 26 6 87 12 196 21 47 4 87 8 89 10 5 5 451 -4 486 -10z
m2290 -1225 c135 -48 209 -138 222 -269 6 -55 5 -57 -13 -40 -32 28 -135 75
-204 93 -83 22 -257 26 -363 9 -45 -8 -87 -14 -93 -14 -9 0 -10 51 -5 191 1
24 6 27 79 41 113 22 299 16 377 -11z m-37 -385 c122 -31 187 -81 231 -176 40
-88 36 -252 -10 -362 -48 -115 -150 -214 -287 -279 -77 -36 -272 -99 -357
-115 -11 -2 -71 -15 -134 -29 -63 -14 -118 -25 -122 -25 -5 0 1 21 12 48 46
104 102 264 135 381 40 147 91 428 94 524 0 4 12 12 26 18 26 9 46 13 144 28
72 11 200 5 268 -13z m-4403 -251 c194 -220 515 -415 875 -535 87 -28 291 -82
365 -95 238 -42 340 -50 615 -50 209 0 321 6 400 20 14 2 45 6 70 9 25 3 56 8
70 11 14 3 41 8 60 11 48 8 242 53 260 61 8 3 23 8 32 9 10 2 75 25 145 50
355 128 682 344 850 562 38 50 40 45 18 -76 -97 -554 -336 -984 -695 -1253
-215 -160 -505 -274 -815 -320 -208 -30 -568 -33 -755 -6 -133 20 -169 26
-192 33 -9 3 -25 6 -35 8 -187 36 -427 141 -607 266 -208 144 -424 405 -528
640 -16 36 -37 83 -47 105 -47 103 -124 376 -150 535 -7 36 -14 76 -16 90 -5
22 -4 23 7 9 7 -9 40 -46 73 -84z"/>
<path d="M1979 4136 c-2 -2 -52 -6 -110 -10 -59 -3 -147 -13 -195 -21 -49 -9
-102 -18 -119 -21 -16 -3 -73 -16 -125 -29 -712 -180 -1164 -622 -1075 -1050
16 -76 69 -195 110 -249 34 -45 71 -58 112 -41 58 24 69 79 28 139 -118 174
-120 343 -5 513 101 150 256 270 494 383 113 54 333 132 401 143 17 3 48 9 70
15 22 6 72 16 110 22 39 6 80 13 92 15 117 20 501 27 648 12 67 -7 177 -25
318 -52 21 -4 140 -40 262 -79 17 -5 47 -17 130 -52 45 -19 93 -34 108 -34 60
0 100 84 63 133 -36 48 -378 169 -596 212 -54 11 -197 34 -240 40 -54 7 -475
17 -481 11z"/>
<path d="M1780 3786 c-236 -51 -318 -264 -162 -421 72 -72 204 -147 355 -200
l77 -28 0 -94 0 -95 -57 5 c-103 10 -212 53 -279 111 -22 18 -49 38 -60 44
-50 26 -114 -18 -114 -78 0 -98 222 -220 448 -246 l59 -6 2 -84 c2 -74 0 -84
-16 -85 -71 -4 -222 22 -338 58 -175 54 -324 151 -379 246 -14 23 -29 68 -35
100 -13 71 -16 76 -54 92 -60 25 -117 -17 -117 -85 1 -186 177 -381 437 -482
184 -72 341 -100 558 -102 216 -1 370 19 530 70 145 46 279 121 366 205 97 94
145 182 153 280 7 82 -29 126 -98 121 -35 -2 -63 -40 -70 -94 -10 -69 -39
-123 -101 -183 -111 -109 -354 -201 -580 -221 -33 -3 -66 -7 -72 -9 -10 -3
-13 18 -13 85 0 87 1 90 23 90 137 3 363 89 441 169 51 53 57 92 17 131 -39
40 -77 39 -127 -1 -95 -76 -180 -111 -301 -125 l-53 -7 0 96 0 95 48 16 c141
48 284 123 358 189 121 109 136 247 38 353 -33 35 -118 79 -179 92 -72 16
-194 6 -277 -22 l-77 -26 -65 25 c-78 29 -205 39 -286 21z m214 -176 c21 -7
56 -23 79 -36 53 -30 70 -30 124 2 63 36 119 51 193 49 106 -3 182 -51 165
-104 -16 -52 -161 -140 -329 -201 l-90 -33 -80 28 c-124 43 -242 103 -297 153
-42 38 -50 50 -47 75 3 34 44 64 101 77 46 9 138 5 181 -10z"/>
<path d="M3590 3590 c-16 -14 -23 -31 -24 -58 0 -33 7 -47 50 -96 28 -31 65
-85 81 -119 31 -62 60 -173 57 -214 -9 -134 -77 -258 -212 -385 -246 -232
-690 -402 -1162 -445 -130 -12 -473 -9 -585 6 -269 34 -529 112 -767 231 -105
53 -122 57 -162 39 -26 -12 -35 -27 -42 -70 -9 -52 61 -99 281 -191 227 -95
423 -146 705 -183 99 -13 571 -15 625 -2 11 3 45 8 75 11 30 4 66 8 80 11 14
2 42 6 63 9 81 12 286 66 387 101 359 126 622 310 784 552 34 51 81 171 93
238 30 163 -39 375 -168 518 -54 60 -64 67 -98 67 -23 0 -47 -8 -61 -20z"/>
<path d="M893 1578 c-35 -9 -63 -49 -63 -90 0 -15 24 -46 74 -94 265 -256 695
-407 1164 -409 101 0 104 1 128 28 26 31 30 54 13 90 -17 38 -45 47 -174 52
-146 6 -214 13 -295 30 -14 3 -41 8 -60 11 -220 36 -493 169 -660 321 -71 64
-87 72 -127 61z"/>
</g>
</svg>
